<svg width="2048" height="512" viewBox="0 0 2048 512" fill="none" xmlns="http://www.w3.org/2000/svg">
<path d="M2048 512C1365.38 512 682.768 512 0 512C0 341.415 0 170.829 0 0C682.019 0 1364.19 2.98023e-08 2047.18 0.462638C2048 171.284 2048 341.642 2048 512Z" fill="url(#paint0_linear_0_1)"/>
<path d="M1670.45 49.9986C1677.06 45.3729 1685.58 44.3461 1693.43 45.353C1700.85 46.6888 1707.76 51.1051 1711.9 57.4455C1715.5 62.6792 1716.8 69.209 1716.45 75.4795C1723.47 74.7219 1731.6 76.9749 1735.46 83.3252C1739.83 90.6724 1736.9 100.801 1729.89 105.397C1725.91 108.158 1721.02 109.295 1716.22 109.075C1698.28 108.736 1680.32 108.866 1662.37 108.946C1656.76 108.896 1650.93 109.643 1645.57 107.53C1636.93 104.659 1630.76 95.9061 1631.02 86.7844C1630.63 77.3836 1636.75 68.2121 1645.51 64.8425C1650.28 62.8786 1655.51 63.6562 1660.37 64.8425C1661.68 58.8312 1665.57 53.6273 1670.45 49.9986Z" fill="#F9F9F8"/>
<path d="M1375.39 254.012C1376.68 254.007 1376.39 254.012 1377.39 254.012C1379.39 254.012 1377.89 253.985 1379.39 254.012C1385.86 254.132 1389.48 253.846 1395.95 254.314C1395.63 258.182 1395.44 262.07 1395.65 265.948C1395.94 270.574 1395.7 275.199 1395.63 279.825C1395.7 281.57 1395.48 283.623 1396.83 284.989C1399.36 286.106 1402.22 285.976 1404.95 286.066C1411.8 285.976 1418.73 286.255 1425.49 284.8C1425.54 311.078 1425.02 337.366 1425.4 363.645C1425.45 365.848 1423.12 367.623 1421 367.403C1406.42 367.324 1394.98 367.463 1380.39 367.333C1379.71 367.333 1379.94 367.333 1378.59 367.333C1378.59 367.333 1377.78 367.333 1376.9 367.333C1363.99 367.304 1351.08 367.443 1338.17 367.353C1335.52 367.682 1333.09 365.27 1333.38 362.628C1333.17 336.36 1333.73 310.081 1333.07 283.813C1333.08 275.15 1332.96 266.496 1333.02 257.843C1332.98 255.231 1335.84 253.965 1338.1 254.115C1350.87 253.955 1362.62 254.062 1375.39 254.012ZM1349.9 302.405C1349.56 310.669 1349.87 318.934 1349.57 327.188C1351.14 327.268 1352.71 327.328 1354.33 327.387C1354.32 324.636 1354.35 321.885 1354.39 319.123C1357.82 319.073 1361.77 319.761 1364.64 317.369C1369.19 314.149 1368.98 306.203 1363.89 303.591C1359.52 301.568 1354.54 302.535 1349.9 302.405ZM1371.54 302.465C1371.37 310.719 1371.49 318.994 1371.73 327.248C1376.99 327.128 1382.65 327.926 1387.5 325.314C1395.11 320.668 1394.62 307.15 1386.27 303.482C1381.55 301.797 1376.43 302.634 1371.54 302.465ZM1396.87 302.405C1396.84 310.6 1396.52 318.824 1397.18 326.999C1398.51 326.999 1399.89 326.999 1401.28 326.989C1401.29 323.45 1401.25 319.911 1401.26 316.382C1404.37 316.421 1407.49 316.441 1410.62 316.431C1410.6 315.285 1410.6 314.129 1410.62 312.972C1407.45 312.932 1404.29 312.962 1401.15 312.962C1401.11 310.709 1401.12 308.446 1401.14 306.183C1404.51 306.243 1407.88 306.393 1411.27 306.532C1411.35 305.455 1411.51 303.292 1411.59 302.206C1406.68 302.036 1401.76 302.046 1396.87 302.405ZM1352.41 341.952C1351.33 343.228 1351.81 344.913 1351.84 346.408C1370.59 346.269 1389.36 346.578 1408.1 346.528C1408.04 344.923 1408.01 343.328 1408.05 341.733C1394.08 340.866 1380.05 341.544 1366.05 341.294C1361.51 341.434 1356.84 340.806 1352.41 341.952Z" fill="#FAF9F9"/>
<path d="M1395.95 254.314C1398.81 257.175 1401.69 260.006 1404.45 262.977C1401.54 264.054 1398.59 265.031 1395.65 265.948C1395.44 262.07 1395.63 258.182 1395.95 254.314Z" fill="#C8CDD5"/>
<path d="M1395.65 265.948C1398.59 265.031 1401.54 264.054 1404.45 262.977C1411.78 269.925 1418.68 277.332 1425.49 284.799C1418.73 286.255 1411.8 285.976 1404.95 286.065C1402.22 285.976 1399.36 286.105 1396.83 284.989C1395.48 283.623 1395.7 281.569 1395.63 279.825C1395.7 275.199 1395.94 270.573 1395.65 265.948Z" fill="#D4D9E0"/>
<path d="M1349.9 302.405C1354.54 302.534 1359.52 301.567 1363.89 303.591C1368.98 306.203 1369.19 314.148 1364.64 317.368C1361.77 319.761 1357.82 319.073 1354.39 319.123C1354.35 321.884 1354.32 324.636 1354.33 327.387C1352.71 327.327 1351.14 327.268 1349.57 327.188C1349.87 318.933 1349.56 310.669 1349.9 302.405ZM1354.34 306.083C1354.34 309.174 1354.34 312.254 1354.32 315.345C1356.26 315.315 1358.24 315.385 1360.19 315.056C1363.95 314.278 1364.66 308.167 1361.1 306.632C1358.94 305.874 1356.56 306.213 1354.34 306.083Z" fill="#0E1E35"/>
<path d="M1371.54 302.465C1376.43 302.634 1381.55 301.797 1386.27 303.482C1394.62 307.15 1395.11 320.668 1387.5 325.314C1382.65 327.926 1376.99 327.128 1371.73 327.248C1371.49 318.993 1371.37 310.719 1371.54 302.465ZM1375.4 306.223C1375.49 311.945 1375.5 317.658 1375.49 323.38C1378.74 323.21 1382.42 323.918 1385.31 321.984C1390 318.714 1389.87 310.599 1385.07 307.499C1382.17 305.675 1378.61 306.283 1375.4 306.223Z" fill="#0F1F37"/>
<path d="M1396.87 302.405C1401.76 302.046 1406.68 302.036 1411.59 302.206C1411.51 303.292 1411.35 305.455 1411.27 306.532C1407.88 306.393 1404.51 306.243 1401.14 306.183C1401.12 308.446 1401.11 310.709 1401.15 312.962C1404.29 312.962 1407.45 312.932 1410.62 312.972C1410.6 314.129 1410.6 315.285 1410.62 316.431C1407.49 316.441 1404.37 316.421 1401.26 316.382C1401.25 319.911 1401.29 323.45 1401.28 326.989C1399.89 326.999 1398.51 326.999 1397.18 326.999C1396.52 318.824 1396.84 310.599 1396.87 302.405Z" fill="#0A1B33"/>
<path d="M1354.34 306.083C1356.56 306.213 1358.94 305.874 1361.1 306.632C1364.66 308.167 1363.95 314.278 1360.19 315.056C1358.24 315.385 1356.26 315.315 1354.32 315.345C1354.34 312.254 1354.34 309.174 1354.34 306.083Z" fill="#FDFCFB"/>
<path d="M1375.4 306.222C1378.61 306.282 1382.17 305.674 1385.07 307.498C1389.87 310.599 1390 318.714 1385.31 321.984C1382.42 323.918 1378.75 323.21 1375.49 323.379C1375.5 317.657 1375.5 311.945 1375.4 306.222Z" fill="#FDFDFD"/>
<path d="M1352.41 341.952C1356.84 340.806 1361.51 341.434 1366.05 341.294C1380.05 341.544 1394.08 340.866 1408.05 341.733C1408.01 343.328 1408.04 344.923 1408.1 346.528C1389.36 346.578 1370.59 346.269 1351.84 346.408C1351.81 344.913 1351.33 343.228 1352.41 341.952Z" fill="#CFD4DC"/>
<path d="M1912.99 155.201C1913.46 155.382 1913.57 155.161 1913.57 155.161C1929.81 155.331 1946.06 154.962 1962.3 155.211C1965.24 155.121 1967.49 158.012 1967.33 160.833C1967.62 179.984 1967.49 199.155 1967.36 218.305C1958.35 207.339 1949.98 195.855 1940.83 184.998C1934.38 192.824 1927.66 200.421 1921.62 208.575C1918.39 204.976 1915.15 201.408 1911.75 197.988C1902.73 206.98 1893.67 215.932 1885.03 225.283L1885 224.107C1885.35 203.023 1884.87 181.918 1885.06 160.823C1885.14 158.102 1887.37 154.982 1890.33 155.081C1897.88 155.041 1905.43 155.4 1912.99 155.201C1912.67 159.348 1913.02 151.044 1912.99 155.201ZM1907.47 174.022C1903.99 175.508 1901.91 179.286 1901.85 182.985C1901.92 187.909 1906.4 192.296 1911.36 192.146C1917.55 191.887 1922.43 184.39 1919.42 178.748C1917.44 174.371 1911.93 172.029 1907.47 174.022Z" fill="#4779BD"/>
<path d="M1907.47 174.023C1911.93 172.029 1917.44 174.372 1919.42 178.748C1922.43 184.39 1917.55 191.887 1911.36 192.146C1906.4 192.296 1901.92 187.91 1901.85 182.985C1901.91 179.286 1903.99 175.508 1907.47 174.023Z" fill="#2C5595"/>
<path d="M1718.29 189.687C1718.31 187.573 1718.37 185.46 1718.46 183.356C1718.49 185.46 1718.51 187.563 1718.54 189.667C1744.5 189.557 1770.46 189.378 1796.43 189.527C1796.48 187.553 1796.56 185.59 1796.67 183.616C1796.73 185.58 1796.78 187.543 1796.87 189.507C1812.95 189.597 1829.03 189.458 1845.12 189.348C1845.22 187.703 1845.36 186.058 1845.52 184.423C1845.58 185.938 1845.62 187.464 1845.71 188.989C1848.94 189.477 1851.61 191.342 1853.61 193.864C1851.48 195.688 1849.92 198.021 1849.35 200.792C1847.45 200.214 1845.55 199.626 1843.72 198.908C1841.18 197.542 1838.44 196.446 1835.51 196.615C1820.03 196.615 1804.56 196.575 1789.1 196.994C1769.86 196.855 1750.62 196.904 1731.39 197.054C1703.97 196.815 1676.55 197.363 1649.14 197.134C1639.8 196.994 1630.47 197.174 1621.14 197.483C1604.41 197.383 1587.69 197.772 1570.97 197.483C1558.33 194.831 1545.3 197.443 1532.54 196.107C1530.6 195.748 1528.87 194.791 1527.12 193.983C1530.6 190.355 1535.9 191.382 1540.42 191.322C1566.36 191.382 1592.3 191.631 1618.25 191.441C1620.81 191.352 1623.34 190.773 1625.86 190.225C1640.32 189.288 1654.89 190.235 1669.39 189.767C1669.4 187.922 1669.47 186.078 1669.54 184.234C1669.6 186.078 1669.65 187.922 1669.73 189.777C1685.92 189.707 1702.1 189.657 1718.29 189.687Z" fill="#848A95"/>
<path d="M1940.83 184.999C1949.98 195.855 1958.35 207.339 1967.36 218.305C1967.47 221.615 1967.49 224.935 1967.36 228.244C1958.14 228.005 1948.87 228.852 1939.7 228.145C1933.3 222.004 1927.75 214.995 1921.62 208.575C1927.66 200.421 1934.38 192.824 1940.83 184.999Z" fill="#254D8C"/>
<path d="M1508.5 193.315C1510.87 190.285 1515.01 190.075 1518.56 190.066C1545.1 190.115 1571.64 190.115 1598.17 189.996C1607.39 190.215 1616.64 189.687 1625.86 190.225C1623.34 190.773 1620.81 191.352 1618.25 191.441C1592.3 191.631 1566.36 191.381 1540.42 191.322C1535.9 191.381 1530.6 190.355 1527.12 193.983C1528.87 194.791 1530.6 195.748 1532.54 196.107C1545.3 197.443 1558.33 194.831 1570.97 197.482C1554.77 197.732 1538.57 197.343 1522.38 197.582C1519.71 197.482 1516.71 198.858 1516.05 201.65C1515.1 206.903 1515.77 212.277 1515.8 217.58C1515.91 281.97 1515.82 346.35 1515.83 410.731C1515.34 414.1 1517.81 416.473 1520.16 418.447C1519.98 421.258 1521.52 423.641 1523.14 425.804C1518.38 425.894 1512.47 427.259 1508.84 423.282C1504.75 419.135 1506.34 412.884 1506.15 407.68C1506.26 340.2 1506.31 272.719 1506.16 205.238C1506.26 201.221 1505.45 196.515 1508.5 193.315Z" fill="#8D919A"/>
<path d="M1849.35 200.792C1849.92 198.021 1851.48 195.688 1853.61 193.864C1854.96 201.45 1854.04 209.196 1854.27 216.862C1854.24 218.737 1854.25 220.611 1854.27 222.485C1854.28 227.27 1854.28 232.065 1854.24 236.85C1854.18 240.988 1854.16 245.125 1854.23 249.262C1854.26 262.062 1854.34 274.872 1854.14 287.673C1854.1 288.859 1854.12 290.045 1854.18 291.232C1854.82 331.686 1853.9 372.17 1854.58 412.625C1854.45 415.994 1854.75 419.803 1852.45 422.574C1850.96 424.558 1848.38 425.036 1846.19 425.804C1846.17 429.483 1846.2 433.161 1845.97 436.84C1845.81 433.121 1845.86 429.413 1845.93 425.704C1843.44 425.714 1840.98 425.744 1838.53 425.804C1840.88 423.312 1842.91 420.321 1842.5 416.712C1843.31 415.426 1844.89 414.369 1844.87 412.685C1844.75 348.235 1844.59 283.765 1844.82 219.315C1844.55 212.516 1845.8 205.508 1843.72 198.908C1845.55 199.626 1847.45 200.214 1849.35 200.792Z" fill="#8C9198"/>
<path d="M1789.1 196.994C1804.56 196.576 1820.03 196.615 1835.51 196.615C1838.44 196.446 1841.18 197.543 1843.72 198.908C1845.8 205.508 1844.55 212.516 1844.82 219.315C1844.18 219.325 1842.88 219.345 1842.24 219.345C1842.16 217.241 1842.52 214.699 1840.68 213.194C1837 209.545 1831.41 209.515 1826.62 208.778C1826.5 206.714 1826.36 204.66 1826.23 202.607C1813.99 199.835 1801.34 199.746 1789.1 196.994Z" fill="#DFE2E5"/>
<path d="M1516.05 201.65C1516.71 198.858 1519.71 197.483 1522.38 197.582C1538.57 197.343 1554.77 197.732 1570.97 197.483C1587.69 197.772 1604.41 197.383 1621.14 197.483C1630.47 197.174 1639.8 196.994 1649.14 197.134C1676.55 197.363 1703.97 196.815 1731.39 197.054C1723.26 200.144 1714.03 199.327 1706.38 203.773C1699.41 207.831 1691.48 210.562 1685.92 216.653C1683.7 214.988 1681.38 213.453 1679 212.057C1678.75 249.352 1679.13 286.656 1678.82 323.96C1678.58 334.388 1679.69 344.865 1678.24 355.243C1677.47 307.342 1678.61 259.42 1677.78 211.509C1667.48 206.973 1656.5 204.172 1645.53 201.849C1637.74 200.653 1630.18 197.802 1622.21 198.041C1605.26 198.181 1588.31 198.051 1571.38 198.48C1563.02 198.589 1554.76 199.935 1546.43 200.424C1543.26 200.683 1540.01 200.743 1537.01 201.849C1535.88 204.601 1536.47 207.641 1536.51 210.522C1530.66 210.801 1521.92 210.333 1520.01 217.471C1518.05 214.769 1517.2 211.529 1516.95 208.249C1516.65 211.37 1516.15 214.47 1515.8 217.58C1515.77 212.277 1515.1 206.903 1516.05 201.65Z" fill="#E0E3E7"/>
<path d="M1731.39 197.054C1750.62 196.905 1769.86 196.855 1789.1 196.994C1801.34 199.746 1813.99 199.836 1826.23 202.607C1826.36 204.661 1826.5 206.714 1826.62 208.778C1827.11 275.122 1826.68 341.466 1826.98 407.81C1817.69 405.816 1808.15 405.567 1798.76 404.281C1772.59 401.121 1746.03 400.553 1719.87 403.902C1710.66 404.909 1702.69 409.934 1694.01 412.695C1691.18 413.532 1688.76 415.217 1686.54 417.081L1686.02 417.261C1686.28 390.135 1686.06 363.009 1686.07 335.883C1686.13 308.299 1686.32 280.725 1686.17 253.15C1685.96 240.988 1686.59 228.806 1685.92 216.653C1691.48 210.562 1699.41 207.831 1706.38 203.773C1714.03 199.327 1723.26 200.145 1731.39 197.054ZM1708.82 234.089C1708.6 239.792 1708.75 245.504 1708.75 251.216C1708.61 253.16 1709.55 255.922 1711.96 255.702C1718.76 255.752 1725.63 256.231 1732.41 255.662C1734.32 253.659 1733.55 250.688 1733.66 248.196C1733.31 242.723 1734.49 237 1732.41 231.767C1725.89 231.448 1719.36 231.467 1712.84 231.457C1711.1 231.298 1708.8 231.976 1708.82 234.089ZM1743 233.342C1742.96 234.658 1742.94 235.973 1742.95 237.299C1763.46 237.369 1784 237.668 1804.5 237.15C1804.47 235.714 1804.47 234.289 1804.48 232.853C1796.89 232.444 1789.29 232.883 1781.7 232.833C1768.8 233.013 1755.88 232.644 1743 233.342ZM1742.56 244.068C1742.61 245.494 1742.69 246.929 1742.79 248.365C1755.07 248.794 1767.37 248.614 1779.66 248.485C1779.58 247.029 1779.53 245.574 1779.5 244.118C1767.18 243.889 1754.87 243.779 1742.56 244.068ZM1711.3 267.536C1708.17 268.084 1708.74 271.792 1708.69 274.145C1708.93 279.738 1708.54 285.38 1709.29 290.943C1709.85 293.395 1713.02 292.787 1714.92 292.887C1720.23 292.558 1725.57 293.106 1730.89 292.797C1733.13 292.548 1733.7 289.986 1733.47 288.102C1733.16 282.13 1733.88 276.149 1733.48 270.187C1733.11 266.997 1729.16 267.366 1726.83 267.356C1721.65 267.645 1716.44 266.838 1711.3 267.536ZM1742.99 269.38C1742.76 270.746 1742.56 272.121 1742.36 273.497C1749.48 274.035 1756.63 273.696 1763.78 273.696C1777.25 273.527 1790.73 273.826 1804.2 273.497C1804.15 272.241 1804.15 270.975 1804 269.739C1799.63 268.762 1795.1 269.539 1790.69 269.34C1774.79 269.18 1758.89 269.39 1742.99 269.38ZM1742.89 280.246C1742.94 281.751 1743.01 283.267 1743.1 284.782C1755.33 284.672 1767.53 285.56 1779.75 285.081C1779.69 283.476 1779.66 281.881 1779.64 280.296C1767.4 279.409 1755.14 280.286 1742.89 280.246ZM1781.39 311.878C1781.25 315.477 1781.41 319.096 1781.37 322.704C1781.25 325.954 1781.19 329.214 1781.16 332.464C1783.46 333.69 1785.99 334.438 1788.64 334.179C1794.16 333.84 1799.92 335.016 1805.25 333.022L1805.15 332.314C1806.36 327.599 1805.25 322.744 1805.57 317.969C1805.52 315.507 1806.09 312.855 1805.01 310.552C1803.98 308.638 1801.54 308.837 1799.73 308.748C1794.69 308.797 1789.66 308.568 1784.63 308.728C1782.88 308.558 1781.22 310.103 1781.39 311.878ZM1710.29 310.393C1708.57 311.669 1709.15 314.091 1709.01 315.935C1709.2 320.96 1708.94 325.994 1709.18 331.019C1708.95 333.092 1711.01 334.488 1712.95 334.258C1718.92 334.368 1724.91 334.458 1730.88 334.308C1732.52 334.428 1733.42 332.344 1733.47 330.959C1733.44 325.974 1733.42 320.99 1733.51 316.005C1733.38 313.932 1733.68 311.409 1731.91 309.924C1726.61 309.116 1721.23 309.705 1715.92 309.535C1714.04 309.705 1711.86 309.216 1710.29 310.393ZM1742.67 311.09C1742.58 312.516 1742.5 313.951 1742.45 315.387C1752.99 315.477 1763.55 315.487 1774.1 315.237C1774.01 313.822 1773.93 312.416 1773.88 311.011C1763.48 310.712 1753.06 310.712 1742.67 311.09ZM1742.62 322.136C1742.64 323.522 1742.68 324.927 1742.74 326.323C1753.22 326.473 1763.7 326.493 1774.18 326.373C1774.05 324.997 1773.93 323.631 1773.83 322.266C1763.44 321.358 1753.02 322.116 1742.62 322.136ZM1710.49 348.454C1709.06 349.681 1708.45 351.694 1708.89 353.529C1708.84 358.992 1708.7 364.475 1709.18 369.918C1709.11 371.214 1709.86 372.3 1710.91 373.018C1715.18 373.606 1719.51 372.998 1723.81 373.188C1727 373.078 1730.61 374.035 1733.33 371.832C1733.3 365.502 1733.41 359.171 1733.22 352.851C1733.06 351.395 1733.23 349.651 1731.92 348.684C1729.03 347.717 1725.92 348.195 1722.95 348.125C1718.79 348.285 1714.59 347.687 1710.49 348.454ZM1781.35 348.464C1781.08 356.001 1781.02 363.577 1781.37 371.094C1783.58 373.965 1787.61 372.889 1790.74 373.068C1795.42 372.699 1800.4 373.925 1804.81 371.842L1804.99 371.912C1806.27 368.263 1805.87 364.365 1805.68 360.597C1806.04 357.078 1806.25 353.439 1805.52 349.97C1804.54 347.178 1800.97 347.707 1798.65 347.547C1792.89 347.856 1786.97 346.8 1781.35 348.464ZM1742.63 349.591C1742.56 351.086 1742.5 352.582 1742.47 354.077C1753.04 354.007 1763.63 354.157 1774.22 354.157C1774.17 352.592 1774.13 351.026 1774.12 349.471C1763.62 349.401 1753.12 349.511 1742.63 349.591ZM1742.4 360.447C1742.38 361.953 1742.38 363.468 1742.4 364.993C1753.08 365.063 1763.8 365.761 1774.47 364.903C1774.26 363.538 1774.04 362.172 1773.87 360.816C1763.39 359.989 1752.88 360.447 1742.4 360.447Z" fill="#FAFAFA"/>
<path d="M1546.43 200.424C1554.76 199.935 1563.02 198.589 1571.38 198.48C1588.31 198.051 1605.26 198.181 1622.21 198.041C1630.18 197.802 1637.74 200.653 1645.53 201.849C1656.5 204.172 1667.48 206.973 1677.78 211.509C1678.61 259.421 1677.47 307.342 1678.24 355.243C1677.71 374.344 1679.21 393.514 1677.66 412.575C1667.32 409.694 1656.99 406.584 1646.29 405.328C1621.84 401.35 1596.87 401.31 1572.26 403.892C1560.46 405.268 1548.63 406.335 1536.81 407.601C1536.61 379.707 1536.71 351.824 1536.62 323.93C1536.38 312.286 1537.04 300.643 1536.39 289.009C1536.13 283.705 1536.73 278.422 1536.71 273.128C1536.05 252.273 1537.09 231.388 1536.51 210.522C1536.47 207.641 1535.88 204.601 1537.01 201.849C1540.01 200.743 1543.26 200.683 1546.43 200.424ZM1604.62 242.742C1590.85 245.653 1578.6 255.752 1573.84 269.12C1567.51 284.164 1571.98 302.537 1583.68 313.702C1590.85 321.099 1601.15 324.688 1611.27 325.316C1622.35 326.024 1633.42 321.847 1641.82 314.689C1650.81 307.292 1655.61 295.578 1655.78 284.064C1656.38 266.977 1644.61 250.738 1628.87 244.666C1621.21 241.616 1612.67 241.187 1604.62 242.742ZM1613.89 354.585L1615.36 353.947C1615.37 355.213 1615.38 356.489 1615.4 357.765L1614.4 356.29C1614.31 360.228 1614.28 364.175 1614.46 368.113C1615.02 368.133 1616.12 368.163 1616.68 368.183C1616.69 362.889 1615.88 357.606 1616.39 352.332C1615.27 352.751 1613.1 352.233 1613.89 354.585ZM1565.85 353.11C1565.75 358.064 1565.63 363.029 1565.78 367.984C1566.31 367.994 1567.38 368.014 1567.92 368.014C1567.97 363.019 1567.91 358.025 1567.78 353.04C1567.3 353.05 1566.34 353.09 1565.85 353.11ZM1570.87 368.033C1571.4 368.014 1572.44 367.984 1572.96 367.974C1572.97 365.162 1572.97 362.361 1573.02 359.55C1574.25 359.091 1575.48 358.643 1576.75 358.204C1577.6 361.524 1577.56 364.953 1577.66 368.362C1578.09 368.073 1578.96 367.505 1579.39 367.226C1579.54 364.046 1580.43 360.347 1578.65 357.516C1576.42 355.941 1573.52 357.775 1571.03 356.968C1570.78 360.656 1570.78 364.345 1570.87 368.033ZM1581.94 360.786C1583.21 363.218 1587 363.039 1587.61 365.99C1585.54 366.05 1583.51 366.02 1581.48 366.05C1583.65 369.559 1590.53 368.372 1589.85 363.707C1588.4 361.354 1585.12 361.085 1583.64 358.702C1585.73 358.094 1587.85 358.463 1589.92 359.031C1589.06 354.386 1580.89 356.459 1581.94 360.786ZM1591.93 356.828C1591.46 361.803 1591.87 366.787 1592.01 371.762C1592.42 371.702 1593.24 371.592 1593.65 371.543C1593.62 370.237 1593.61 368.941 1593.63 367.645C1595.67 367.425 1598.41 368.293 1599.84 366.269C1602 363.916 1602.24 359.62 1599.53 357.596C1597.31 355.971 1594.43 356.739 1591.93 356.828ZM1603.6 365.422C1605.03 367.764 1607.91 368.173 1610.45 368.372C1610.92 367.695 1611.43 367.027 1611.95 366.369C1608.76 366.678 1605.78 365.681 1604.35 362.63C1606.75 362.59 1609.17 362.61 1611.59 362.61L1611.63 361.534C1609.29 361.354 1606.97 361.185 1604.63 361.055C1605.5 360.068 1606.39 359.091 1607.28 358.114C1608.98 358.922 1610.49 359.959 1612.12 360.945C1611.65 359.251 1611.09 357.297 1609.23 356.719C1604.7 355.502 1600.73 361.773 1603.6 365.422ZM1620.62 357.317C1617.56 360.208 1617.8 366.448 1622.14 368.004C1626.32 369.539 1629.94 364.734 1628.86 360.876C1628.57 357.077 1623.53 354.994 1620.62 357.317ZM1631.53 357.157C1631.4 360.038 1631.09 362.909 1631.1 365.79C1631 367.256 1631.74 368.133 1633.32 368.422C1633.5 365.561 1633.46 362.68 1633.72 359.829C1633.77 358.074 1636.08 358.344 1637.28 358.752C1637.87 361.843 1637.49 365.003 1637.53 368.133C1638.07 368.093 1639.16 368.014 1639.69 367.974C1639.81 364.744 1640.27 361.454 1639.63 358.264C1637.96 355.173 1634.2 356.838 1631.53 357.157ZM1645.06 367.704C1646.79 368.731 1648.62 367.226 1650 366.249C1647.34 366.249 1644.32 366.03 1643.4 363.069C1645.8 363.009 1648.22 363.019 1650.65 362.979C1650.64 359.879 1648.75 355.951 1645.08 356.559C1641.02 358.553 1640.48 365.89 1645.06 367.704ZM1651.75 359.859C1652.35 362.431 1655.22 363.089 1657.13 364.435C1656.34 367.176 1653.21 365.551 1651.23 365.721C1652 369.579 1658.76 368.751 1658.93 364.913C1659.48 361.474 1654.38 361.743 1653.94 358.742C1655.6 358.184 1657.4 358.314 1659.15 358.035C1656.8 355.492 1652.27 356.14 1651.75 359.859Z" fill="#FAFAFA"/>
<path d="M1885.03 225.284C1893.67 215.933 1902.73 206.98 1911.75 197.988C1915.15 201.408 1918.39 204.977 1921.62 208.575C1927.75 214.995 1933.3 222.004 1939.7 228.145C1948.87 228.852 1958.14 228.005 1967.36 228.244C1967.17 233.688 1967.5 239.141 1967.27 244.584C1967.31 247.704 1964.41 250.655 1961.23 250.286C1945.36 250.306 1929.32 250.412 1913.46 250.382C1913.64 246.856 1913.34 252.127 1913.46 250.382C1913.33 248.638 1913.46 250.382 1913.06 250.346C1905.82 250.386 1898.57 250.376 1891.33 250.465C1888.84 250.774 1886.6 249.15 1885.62 246.956C1884.82 239.769 1885.39 232.501 1885.03 225.284Z" fill="#DDD7BF"/>
<path d="M1515.8 217.58C1516.15 214.47 1516.65 211.369 1516.95 208.249C1517.2 211.529 1518.05 214.769 1520.01 217.47C1520.15 284.463 1520.2 351.455 1520.16 418.447C1517.81 416.473 1515.34 414.1 1515.83 410.731C1515.82 346.35 1515.91 281.97 1515.8 217.58Z" fill="#E8EAEE"/>
<path d="M1645.14 358.064C1646.7 358.613 1647.89 359.719 1648.93 361.025C1647.11 361.105 1645.32 361.135 1643.52 361.155C1643.93 360.387 1644.73 358.842 1645.14 358.064Z" fill="#E8EAEE"/>
<path d="M1826.62 208.777C1831.41 209.515 1837 209.545 1840.68 213.194C1842.52 214.699 1842.16 217.241 1842.24 219.345C1841.96 267.166 1842 314.988 1842.19 362.799C1842.24 380.774 1841.98 398.748 1842.5 416.712C1842.91 420.321 1840.88 423.312 1838.53 425.804C1793.85 426.193 1749.16 425.923 1704.49 425.874C1704.64 425.604 1704.94 425.046 1705.09 424.777C1710.08 424.677 1715.08 424.807 1720.05 424.219C1714.72 423.292 1709.39 422.434 1704.08 421.338C1706.87 420.909 1709.65 420.401 1712.43 419.892C1721.8 418.546 1731.31 418.516 1740.71 417.29C1754.09 416.174 1767.41 414.509 1780.78 413.273C1778.67 412.914 1776.57 412.565 1774.49 412.306C1789.22 412.076 1803.9 410.761 1818.64 410.442C1821.2 410.372 1823.79 410.392 1826.36 409.993C1826.51 409.445 1826.83 408.358 1826.98 407.81C1826.68 341.466 1827.11 275.121 1826.62 208.777Z" fill="#F9C114"/>
<path d="M1520.01 217.471C1521.92 210.333 1530.66 210.802 1536.51 210.522C1537.09 231.388 1536.05 252.273 1536.71 273.128C1536.73 278.422 1536.13 283.705 1536.39 289.009C1537.04 300.643 1536.38 312.287 1536.62 323.931C1536.71 351.824 1536.61 379.707 1536.81 407.601C1536.81 408.309 1536.81 409.734 1536.81 410.442C1546.81 410.731 1556.83 410.921 1566.8 411.858C1571.58 414.47 1577.13 413.921 1582.36 414.539C1590.99 415.417 1599.6 416.423 1608.26 416.772C1619.51 417.161 1630.66 419.205 1641.95 418.637C1652.27 420.272 1662.73 420.062 1673.13 420.7C1674.71 423.631 1675.51 427.32 1678.48 429.244C1680.71 430.51 1683.28 431.018 1685.77 431.586C1686.34 431.716 1687.48 431.965 1688.04 432.095C1685.88 433.291 1683.74 434.637 1681.29 435.056C1678.79 435.524 1676.12 435.783 1674.25 437.678C1670.44 434.717 1667.47 430.739 1666.32 426.004C1640.66 426.442 1614.99 425.814 1589.33 426.153C1567.3 426.103 1545.27 426.532 1523.25 425.984L1523.14 425.804C1521.52 423.641 1519.98 421.258 1520.16 418.447C1520.2 351.455 1520.15 284.463 1520.01 217.471Z" fill="#F9C219"/>
<path d="M1679 212.058C1681.38 213.453 1683.7 214.989 1685.92 216.653C1686.59 228.806 1685.96 240.988 1686.17 253.15C1686.32 280.725 1686.13 308.299 1686.07 335.883C1686.06 363.009 1686.28 390.135 1686.02 417.261C1683.98 416.742 1682.03 415.895 1680.02 415.357C1665.78 414.609 1651.5 415.127 1637.26 414.499C1613.75 414.121 1590.29 412.625 1566.8 411.858C1556.83 410.92 1546.81 410.731 1536.81 410.442C1536.81 409.734 1536.81 408.309 1536.81 407.601C1548.63 406.335 1560.46 405.268 1572.26 403.892C1596.87 401.31 1621.84 401.35 1646.29 405.328C1656.99 406.584 1667.32 409.694 1677.66 412.575C1679.21 393.514 1677.71 374.344 1678.24 355.243C1679.69 344.865 1678.58 334.388 1678.82 323.96C1679.13 286.656 1678.75 249.352 1679 212.058Z" fill="#D3D8E0"/>
<path d="M1842.24 219.345C1842.88 219.345 1844.18 219.325 1844.82 219.315C1844.59 283.765 1844.75 348.235 1844.87 412.685C1844.89 414.37 1843.31 415.426 1842.5 416.712C1841.98 398.748 1842.24 380.774 1842.19 362.8C1842 314.988 1841.96 267.166 1842.24 219.345Z" fill="#E7E7E8"/>
<path d="M1603.6 365.422C1600.73 361.773 1604.7 355.502 1609.23 356.719C1611.09 357.297 1611.65 359.251 1612.12 360.945C1610.49 359.958 1608.98 358.922 1607.28 358.114C1606.39 359.091 1605.5 360.068 1604.63 361.055C1606.97 361.185 1609.29 361.354 1611.63 361.534L1611.59 362.61C1609.17 362.61 1606.75 362.59 1604.35 362.63C1605.78 365.681 1608.76 366.678 1611.95 366.369C1611.43 367.027 1610.92 367.694 1610.45 368.372C1607.91 368.173 1605.03 367.764 1603.6 365.422Z" fill="#0C2136"/>
<path d="M1708.82 234.089C1708.8 231.975 1711.1 231.297 1712.84 231.457C1719.36 231.467 1725.89 231.447 1732.41 231.766C1734.49 237 1733.31 242.722 1733.66 248.195C1733.55 250.687 1734.32 253.658 1732.41 255.662C1725.63 256.23 1718.76 255.751 1711.96 255.702C1709.55 255.921 1708.61 253.159 1708.75 251.216C1708.75 245.503 1708.6 239.791 1708.82 234.089ZM1728.42 236.95C1724.89 239.562 1722.68 243.559 1719.23 246.291C1717.8 244.905 1716.4 243.519 1714.99 242.144C1714.35 242.463 1713.07 243.111 1712.43 243.43C1714.11 246.311 1716.34 248.833 1718.87 251.016C1723.62 247.577 1727.04 242.682 1731.57 238.964C1730.55 238.236 1729.88 235.744 1728.42 236.95Z" fill="#FAC425"/>
<path d="M1743 233.341C1755.88 232.643 1768.8 233.012 1781.7 232.833C1789.29 232.883 1796.89 232.444 1804.48 232.853C1804.47 234.288 1804.47 235.714 1804.5 237.149C1784 237.668 1763.46 237.369 1742.95 237.299C1742.94 235.973 1742.96 234.657 1743 233.341Z" fill="#CDD3DB"/>
<path d="M1728.42 236.95C1729.88 235.744 1730.55 238.236 1731.57 238.964C1727.04 242.682 1723.62 247.577 1718.87 251.016C1716.34 248.833 1714.11 246.311 1712.43 243.43C1713.07 243.111 1714.35 242.463 1714.99 242.144C1716.4 243.52 1717.8 244.905 1719.23 246.291C1722.68 243.559 1724.89 239.562 1728.42 236.95Z" fill="#1A2236"/>
<path d="M1604.62 242.742C1612.67 241.187 1621.21 241.616 1628.87 244.666C1644.61 250.738 1656.38 266.977 1655.78 284.064C1655.62 295.578 1650.81 307.292 1641.82 314.689C1633.42 321.847 1622.35 326.024 1611.27 325.316C1601.15 324.688 1590.85 321.099 1583.68 313.702C1571.98 302.537 1567.51 284.164 1573.84 269.121C1578.6 255.752 1590.85 245.653 1604.62 242.742ZM1593.74 262.621C1588.42 268.034 1586.34 276.189 1588.02 283.526C1590.05 291.122 1596.15 297.742 1603.89 299.666C1610.11 301.201 1616.81 299.795 1622.25 296.516C1626.88 300.872 1630.42 306.774 1636.22 309.685C1638.37 308.578 1641.06 305.727 1638.72 303.434C1635.02 299.546 1630.99 295.977 1627.52 291.89C1633.43 283.426 1633.65 270.775 1626.22 263.139C1618.24 253.629 1602.11 253.718 1593.74 262.621Z" fill="#F8C11C"/>
<path d="M1742.56 244.068C1754.87 243.779 1767.18 243.889 1779.5 244.118C1779.53 245.573 1779.58 247.029 1779.66 248.484C1767.37 248.614 1755.07 248.793 1742.79 248.365C1742.69 246.929 1742.61 245.494 1742.56 244.068Z" fill="#D0D6DE"/>
<path d="M1742.99 269.38C1758.89 269.39 1774.79 269.18 1790.69 269.34C1795.1 269.539 1799.63 268.762 1804 269.739C1804.15 270.975 1804.15 272.241 1804.2 273.497C1790.73 273.826 1777.25 273.527 1763.78 273.696C1756.63 273.696 1749.48 274.035 1742.36 273.497C1742.56 272.121 1742.76 270.745 1742.99 269.38Z" fill="#D0D6DE"/>
<path d="M1593.74 262.62C1602.11 253.718 1618.24 253.628 1626.22 263.139C1633.65 270.775 1633.43 283.426 1627.52 291.889C1630.99 295.977 1635.02 299.546 1638.72 303.434C1641.06 305.726 1638.37 308.578 1636.22 309.684C1630.42 306.773 1626.88 300.871 1622.25 296.515C1616.81 299.795 1610.11 301.2 1603.89 299.665C1596.15 297.741 1590.05 291.122 1588.02 283.525C1586.34 276.188 1588.42 268.033 1593.74 262.62ZM1605.66 262.62C1598.88 264.484 1593.26 270.805 1593.5 278.042C1593.01 288.011 1603.59 296.336 1613.18 293.783C1621.85 292.139 1627.66 282.508 1625.24 274.055C1623.41 265.631 1613.87 260.158 1605.66 262.62Z" fill="#0F2239"/>
<path d="M1605.66 262.621C1613.87 260.158 1623.41 265.631 1625.24 274.055C1627.66 282.509 1621.85 292.139 1613.18 293.784C1603.59 296.336 1593.01 288.012 1593.5 278.043C1593.26 270.805 1598.88 264.485 1605.66 262.621Z" fill="#F8C01C"/>
<path d="M1711.3 267.535C1716.44 266.837 1721.65 267.645 1726.83 267.355C1729.16 267.365 1733.11 266.997 1733.48 270.187C1733.88 276.148 1733.16 282.13 1733.47 288.101C1733.7 289.985 1733.13 292.547 1730.89 292.797C1725.57 293.106 1720.23 292.557 1714.92 292.886C1713.02 292.787 1709.85 293.395 1709.29 290.942C1708.54 285.38 1708.93 279.737 1708.69 274.144C1708.74 271.792 1708.17 268.083 1711.3 267.535ZM1719.37 282.678C1717.89 281.412 1716.5 280.056 1714.85 279.039C1713.58 279.159 1712.86 279.897 1712.71 281.242C1714.41 283.595 1716.39 285.878 1718.85 287.493C1722.39 285.808 1724.51 282.12 1727.48 279.617C1729.17 277.683 1733.31 274.982 1729.93 272.559C1725.28 274.493 1723.31 279.757 1719.37 282.678Z" fill="#F9C323"/>
<path d="M1719.37 282.678C1723.31 279.757 1725.28 274.494 1729.93 272.56C1733.31 274.982 1729.17 277.684 1727.48 279.618C1724.51 282.12 1722.39 285.808 1718.85 287.493C1716.39 285.878 1714.41 283.595 1712.71 281.243C1712.86 279.897 1713.58 279.159 1714.85 279.039C1716.5 280.056 1717.89 281.412 1719.37 282.678Z" fill="#1B2234"/>
<path d="M1742.89 280.246C1755.14 280.286 1767.4 279.409 1779.64 280.296C1779.66 281.881 1779.69 283.476 1779.75 285.081C1767.53 285.56 1755.33 284.672 1743.1 284.782C1743.01 283.267 1742.94 281.751 1742.89 280.246Z" fill="#D0D6DF"/>
<path d="M1719.4 437.677C1719.3 433.839 1719.25 430.011 1719.44 426.183C1719.54 430.011 1719.49 433.839 1719.4 437.677Z" fill="#D0D6DF"/>
<path d="M1781.39 311.877C1781.22 310.103 1782.88 308.558 1784.63 308.727C1789.66 308.568 1794.69 308.797 1799.73 308.747C1801.54 308.837 1803.98 308.638 1805.01 310.552C1806.09 312.854 1805.52 315.506 1805.57 317.969C1805.25 322.744 1806.36 327.599 1805.15 332.314C1804.83 329.991 1804.54 327.668 1804.27 325.346C1802.66 325.346 1801.05 325.336 1799.47 325.336C1798.42 323.99 1797.35 322.674 1796.31 321.338C1797.68 319.783 1799.18 318.288 1800.29 316.503C1800.02 315.377 1799.38 314.38 1798.94 313.353C1797.06 315.107 1795.22 316.902 1793.43 318.726C1791.36 317.022 1789.69 314.31 1786.85 313.991C1784.3 316.932 1789.34 319.294 1790.87 321.458C1789.62 322.863 1788.35 324.249 1787.13 325.665C1785.19 324.678 1783.28 323.691 1781.37 322.704C1781.41 319.095 1781.25 315.476 1781.39 311.877Z" fill="#EA5D59"/>
<path d="M1710.29 310.392C1711.86 309.216 1714.04 309.704 1715.92 309.535C1721.23 309.704 1726.61 309.116 1731.91 309.924C1733.68 311.409 1733.38 313.931 1733.51 316.005C1733.42 320.989 1733.44 325.974 1733.47 330.958C1733.42 332.344 1732.52 334.428 1730.88 334.308C1724.91 334.457 1718.92 334.368 1712.95 334.258C1711.01 334.487 1708.95 333.092 1709.18 331.018C1708.94 325.994 1709.2 320.959 1709.01 315.935C1709.15 314.091 1708.57 311.668 1710.29 310.392ZM1719.28 324.528C1717.75 323.133 1716.25 321.747 1714.74 320.371C1713.87 321.169 1713.04 321.976 1712.23 322.804C1714.26 325.216 1716.5 327.469 1718.86 329.583C1723.42 325.864 1727.08 321.209 1731.35 317.181C1730.94 316.483 1730.11 315.088 1729.69 314.4C1725.39 316.852 1723.11 321.498 1719.28 324.528Z" fill="#FAC525"/>
<path d="M1742.67 311.09C1753.06 310.711 1763.48 310.711 1773.88 311.01C1773.93 312.416 1774.01 313.821 1774.1 315.237C1763.55 315.486 1752.99 315.476 1742.45 315.387C1742.5 313.951 1742.58 312.515 1742.67 311.09Z" fill="#D2D7DF"/>
<path d="M1786.85 313.991C1789.69 314.31 1791.36 317.022 1793.43 318.726C1795.22 316.902 1797.06 315.108 1798.94 313.353C1799.38 314.38 1800.02 315.377 1800.29 316.503C1799.18 318.288 1797.68 319.783 1796.31 321.338C1797.35 322.674 1798.42 323.99 1799.47 325.336C1799.92 326.622 1800.11 327.938 1800.05 329.314C1797.35 328.327 1795.44 326.133 1793.48 324.179C1791.81 325.764 1790.27 327.469 1788.41 328.805C1787.45 328.416 1786.54 327.938 1785.68 327.409C1786.04 326.981 1786.76 326.103 1787.13 325.665C1788.35 324.249 1789.62 322.864 1790.87 321.458C1789.34 319.295 1784.3 316.932 1786.85 313.991Z" fill="#F7FBFA"/>
<path d="M1719.28 324.528C1723.11 321.497 1725.39 316.852 1729.7 314.399C1730.11 315.087 1730.94 316.483 1731.35 317.181C1727.08 321.208 1723.42 325.864 1718.86 329.582C1716.5 327.469 1714.26 325.216 1712.23 322.803C1713.04 321.976 1713.87 321.168 1714.74 320.371C1716.25 321.747 1717.75 323.132 1719.28 324.528Z" fill="#18233C"/>
<path d="M1742.62 322.136C1753.02 322.116 1763.44 321.358 1773.83 322.265C1773.93 323.631 1774.05 324.997 1774.18 326.373C1763.7 326.492 1753.22 326.472 1742.74 326.323C1742.68 324.927 1742.64 323.521 1742.62 322.136Z" fill="#CDD4DE"/>
<path d="M1781.37 322.704C1783.28 323.691 1785.19 324.678 1787.13 325.665C1786.76 326.104 1786.04 326.981 1785.68 327.41C1786.54 327.938 1787.45 328.416 1788.41 328.805C1790.27 327.469 1791.81 325.765 1793.48 324.18C1795.44 326.133 1797.35 328.327 1800.05 329.314C1800.11 327.938 1799.92 326.622 1799.47 325.336C1801.05 325.336 1802.66 325.346 1804.27 325.346C1804.54 327.669 1804.83 329.991 1805.15 332.314L1805.25 333.022C1799.92 335.016 1794.16 333.84 1788.64 334.178C1785.99 334.438 1783.46 333.69 1781.16 332.464C1781.19 329.214 1781.25 325.954 1781.37 322.704Z" fill="#E84D4C"/>
<path d="M1710.49 348.454C1714.59 347.686 1718.79 348.285 1722.95 348.125C1725.92 348.195 1729.03 347.716 1731.92 348.683C1733.23 349.65 1733.06 351.395 1733.22 352.85C1733.41 359.171 1733.3 365.501 1733.33 371.832C1732.59 369.279 1731.9 366.717 1731.23 364.155C1729.7 363.079 1728.15 362.002 1726.64 360.945C1728.28 359.181 1729.94 357.386 1731.06 355.223C1730.55 354.565 1729.53 353.259 1729.02 352.611C1725.5 355.921 1722.78 359.918 1719.72 363.617C1717.98 362.092 1716.25 360.556 1714.51 359.061C1713.78 360.237 1713.07 361.414 1712.46 362.64C1711.82 362.132 1711.2 361.633 1710.6 361.145C1709.97 358.613 1709.34 356.09 1708.89 353.528C1708.45 351.694 1709.06 349.68 1710.49 348.454Z" fill="#F7C220"/>
<path d="M1781.35 348.464C1786.97 346.799 1792.89 347.856 1798.65 347.547C1800.97 347.706 1804.54 347.178 1805.52 349.969C1806.25 353.438 1806.04 357.077 1805.68 360.596C1805.13 362.042 1804.53 363.477 1803.96 364.913C1801.69 362.899 1799.43 360.885 1797.19 358.862C1798.38 357.546 1799.6 356.23 1800.59 354.724C1799.81 353.847 1798.91 353.08 1798.09 352.312C1796.61 354.057 1795.13 355.801 1793.67 357.546C1792.09 356.03 1790.59 354.435 1788.81 353.179C1787.99 353.448 1786.37 353.967 1785.56 354.236C1787.21 356.21 1788.92 358.144 1790.66 360.058C1788.97 362.042 1787.28 364.006 1785.57 365.96C1785.93 366.578 1786.65 367.834 1787.01 368.462C1792.78 370.486 1799.23 369.02 1804.81 371.841C1800.4 373.925 1795.42 372.699 1790.74 373.068C1787.61 372.888 1783.58 373.965 1781.37 371.094C1781.02 363.577 1781.08 356.001 1781.35 348.464Z" fill="#E84E50"/>
<path d="M1742.63 349.591C1753.12 349.511 1763.62 349.401 1774.12 349.471C1774.13 351.026 1774.17 352.591 1774.22 354.156C1763.63 354.156 1753.04 354.007 1742.47 354.077C1742.5 352.581 1742.56 351.086 1742.63 349.591Z" fill="#D2D8E0"/>
<path d="M1613.89 354.585C1613.1 352.232 1615.27 352.751 1616.39 352.332C1615.88 357.606 1616.69 362.889 1616.68 368.183C1616.12 368.163 1615.02 368.133 1614.46 368.113C1614.28 364.175 1614.31 360.228 1614.4 356.29L1615.4 357.765C1615.38 356.489 1615.37 355.213 1615.36 353.947L1613.89 354.585Z" fill="#1D2F3E"/>
<path d="M1645.06 367.704C1640.48 365.89 1641.02 358.553 1645.08 356.559C1648.75 355.951 1650.64 359.879 1650.65 362.979C1648.22 363.019 1645.8 363.009 1643.4 363.069C1644.32 366.03 1647.34 366.249 1650 366.249C1648.62 367.226 1646.79 368.731 1645.06 367.704ZM1645.14 358.064C1644.73 358.842 1643.93 360.387 1643.52 361.155C1645.32 361.135 1647.11 361.105 1648.93 361.025C1647.89 359.719 1646.7 358.613 1645.14 358.064Z" fill="#1D2F3E"/>
<path d="M1651.75 359.859C1652.27 356.141 1656.8 355.493 1659.15 358.035C1657.4 358.314 1655.6 358.184 1653.94 358.743C1654.38 361.743 1659.48 361.474 1658.93 364.913C1658.76 368.752 1652 369.579 1651.23 365.721C1653.21 365.551 1656.34 367.176 1657.13 364.435C1655.22 363.089 1652.35 362.431 1651.75 359.859Z" fill="#1D2F3E"/>
<path d="M1565.85 353.109C1566.34 353.089 1567.3 353.05 1567.78 353.04C1567.91 358.024 1567.97 363.019 1567.92 368.013C1567.38 368.013 1566.31 367.993 1565.78 367.983C1565.63 363.029 1565.75 358.064 1565.85 353.109Z" fill="#14263F"/>
<path d="M1798.09 352.312C1798.91 353.08 1799.81 353.847 1800.59 354.725C1799.6 356.23 1798.38 357.546 1797.19 358.862C1796.73 359.33 1796.29 359.799 1795.86 360.267C1797.42 362.052 1799.5 363.577 1800.47 365.81C1800.06 366.707 1799.64 367.595 1799.21 368.472C1797.27 366.667 1795.37 364.823 1793.48 362.989C1791.44 364.963 1789.3 366.817 1787.01 368.462C1786.65 367.834 1785.93 366.578 1785.57 365.96C1787.28 364.006 1788.97 362.042 1790.66 360.058C1788.92 358.144 1787.21 356.21 1785.56 354.236C1786.37 353.967 1787.99 353.448 1788.81 353.179C1790.59 354.435 1792.09 356.03 1793.67 357.546C1795.13 355.801 1796.61 354.057 1798.09 352.312Z" fill="#F6F8F7"/>
<path d="M1708.89 353.528C1709.34 356.09 1709.97 358.613 1710.6 361.145C1711.2 361.633 1711.82 362.132 1712.46 362.64C1714.66 364.494 1716.79 366.448 1718.95 368.382C1721.64 366.039 1724.15 363.497 1726.64 360.945C1728.15 362.002 1729.7 363.079 1731.23 364.155C1731.9 366.717 1732.59 369.279 1733.33 371.832C1730.61 374.035 1727 373.078 1723.81 373.187C1719.51 372.998 1715.18 373.606 1710.91 373.018C1709.86 372.3 1709.11 371.213 1709.18 369.917C1708.7 364.474 1708.84 358.991 1708.89 353.528Z" fill="#F8C52E"/>
<path d="M1719.72 363.617C1722.78 359.919 1725.5 355.921 1729.02 352.611C1729.53 353.259 1730.55 354.565 1731.06 355.223C1729.94 357.387 1728.28 359.181 1726.64 360.945C1724.15 363.498 1721.64 366.04 1718.95 368.382C1716.79 366.448 1714.66 364.494 1712.46 362.64C1713.07 361.414 1713.78 360.238 1714.51 359.061C1716.25 360.557 1717.98 362.092 1719.72 363.617Z" fill="#202333"/>
<path d="M1570.87 368.033C1570.78 364.344 1570.78 360.656 1571.03 356.967C1573.52 357.775 1576.42 355.941 1578.65 357.516C1580.43 360.347 1579.54 364.045 1579.39 367.226C1578.96 367.505 1578.09 368.073 1577.66 368.362C1577.56 364.953 1577.6 361.523 1576.75 358.204C1575.48 358.642 1574.25 359.091 1573.02 359.549C1572.97 362.361 1572.97 365.162 1572.96 367.973C1572.44 367.983 1571.4 368.013 1570.87 368.033Z" fill="#122740"/>
<path d="M1581.94 360.786C1580.89 356.459 1589.06 354.386 1589.92 359.031C1587.85 358.463 1585.73 358.094 1583.64 358.702C1585.12 361.085 1588.4 361.354 1589.85 363.707C1590.53 368.372 1583.65 369.559 1581.48 366.05C1583.51 366.02 1585.54 366.05 1587.61 365.99C1587 363.039 1583.21 363.218 1581.94 360.786Z" fill="#182E3F"/>
<path d="M1591.93 356.828C1594.43 356.738 1597.31 355.971 1599.53 357.596C1602.24 359.619 1602 363.916 1599.84 366.269C1598.41 368.292 1595.67 367.425 1593.63 367.644C1593.61 368.94 1593.62 370.236 1593.65 371.542C1593.24 371.592 1592.42 371.702 1592.01 371.762C1591.87 366.787 1591.46 361.803 1591.93 356.828ZM1593.91 366.039C1594.53 365.99 1595.79 365.87 1596.42 365.82C1600.72 365.352 1599.99 357.187 1595.37 358.293C1592.63 359.45 1594.25 363.597 1593.91 366.039Z" fill="#182E3F"/>
<path d="M1631.53 357.157C1634.2 356.838 1637.96 355.173 1639.63 358.264C1640.27 361.454 1639.81 364.744 1639.69 367.974C1639.16 368.014 1638.07 368.093 1637.53 368.133C1637.49 365.003 1637.87 361.843 1637.28 358.752C1636.08 358.344 1633.77 358.074 1633.72 359.829C1633.46 362.68 1633.5 365.561 1633.32 368.422C1631.74 368.133 1631 367.256 1631.1 365.79C1631.09 362.909 1631.4 360.038 1631.53 357.157Z" fill="#182E3F"/>
<path d="M1620.62 357.317C1623.53 354.994 1628.57 357.077 1628.86 360.876C1629.94 364.734 1626.32 369.539 1622.14 368.003C1617.8 366.448 1617.56 360.208 1620.62 357.317ZM1621.66 359.27C1618.99 361.633 1621.29 367.894 1625.11 365.641C1629.07 363.707 1625.36 355.602 1621.66 359.27Z" fill="#152737"/>
<path d="M1593.91 366.039C1594.25 363.597 1592.63 359.45 1595.37 358.293C1599.99 357.187 1600.72 365.352 1596.42 365.82C1595.79 365.87 1594.53 365.99 1593.91 366.039Z" fill="#FEFDFC"/>
<path d="M1621.66 359.27C1625.36 355.602 1629.07 363.707 1625.11 365.641C1621.29 367.894 1618.99 361.633 1621.66 359.27Z" fill="#FCFEFD"/>
<path d="M1795.86 360.267C1796.29 359.799 1796.73 359.33 1797.19 358.862C1799.43 360.886 1801.69 362.899 1803.96 364.913C1804.53 363.477 1805.13 362.042 1805.68 360.596C1805.87 364.365 1806.27 368.263 1804.99 371.911L1804.81 371.842C1799.23 369.02 1792.78 370.486 1787.01 368.462C1789.3 366.817 1791.44 364.963 1793.48 362.989C1795.37 364.823 1797.27 366.668 1799.21 368.472C1799.64 367.595 1800.06 366.707 1800.47 365.81C1799.5 363.577 1797.42 362.052 1795.86 360.267Z" fill="#E75E62"/>
<path d="M1742.4 360.447C1752.88 360.447 1763.39 359.988 1773.87 360.816C1774.04 362.172 1774.26 363.537 1774.47 364.903C1763.8 365.761 1753.08 365.063 1742.4 364.993C1742.38 363.468 1742.38 361.952 1742.4 360.447Z" fill="#CDD6DE"/>
<path d="M1719.87 403.902C1746.03 400.553 1772.59 401.121 1798.76 404.281C1808.15 405.567 1817.69 405.816 1826.98 407.81C1826.83 408.358 1826.51 409.445 1826.36 409.993C1823.79 410.392 1821.2 410.372 1818.64 410.442C1803.9 410.761 1789.22 412.077 1774.49 412.306C1748.98 412.835 1723.49 414.43 1697.99 415.277C1694.1 415.287 1690.19 415.686 1686.54 417.081C1688.76 415.217 1691.18 413.532 1694.01 412.695C1702.69 409.934 1710.66 404.909 1719.87 403.902Z" fill="#D3DAE1"/>
<path d="M1566.8 411.857C1590.29 412.625 1613.75 414.12 1637.26 414.499C1638.91 415.755 1640.44 417.181 1641.95 418.636C1630.66 419.205 1619.51 417.161 1608.26 416.772C1599.6 416.423 1590.99 415.416 1582.36 414.539C1577.13 413.921 1571.58 414.469 1566.8 411.857Z" fill="#E4B41A"/>
<path d="M1697.99 415.276C1723.49 414.429 1748.98 412.834 1774.49 412.306C1776.57 412.565 1778.67 412.914 1780.78 413.273C1767.41 414.509 1754.09 416.174 1740.71 417.29C1731.31 418.516 1721.8 418.546 1712.43 419.892C1707.58 419.753 1702.74 419.832 1697.95 420.6C1697.99 418.815 1697.97 417.041 1697.99 415.276Z" fill="#E1AF24"/>
<path d="M1637.26 414.499C1651.5 415.127 1665.78 414.609 1680.02 415.356C1676.86 415.476 1673.95 416.722 1671.31 418.357C1671.91 419.115 1672.52 419.902 1673.13 420.7C1662.73 420.062 1652.27 420.271 1641.95 418.636C1640.44 417.181 1638.91 415.755 1637.26 414.499Z" fill="#DDAC1F"/>
<path d="M1671.31 418.357C1673.95 416.722 1676.86 415.476 1680.02 415.357C1682.03 415.895 1683.98 416.742 1686.02 417.261L1686.54 417.081C1690.19 415.686 1694.1 415.287 1697.99 415.277C1697.97 417.041 1697.99 418.816 1697.95 420.6C1696.95 426.671 1691.61 430.689 1685.77 431.586C1683.28 431.018 1680.71 430.51 1678.48 429.244C1675.51 427.319 1674.71 423.631 1673.13 420.7C1672.52 419.903 1671.91 419.115 1671.31 418.357Z" fill="#D0A525"/>
<path d="M1697.95 420.6C1702.74 419.832 1707.58 419.753 1712.43 419.892C1709.65 420.401 1706.87 420.909 1704.08 421.338C1709.39 422.434 1714.72 423.292 1720.05 424.219C1715.08 424.807 1710.08 424.677 1705.09 424.777C1704.94 425.046 1704.64 425.604 1704.49 425.874C1702.7 429.881 1700.75 434.048 1697.18 436.78C1690.7 441.734 1681.18 441.675 1674.25 437.677C1676.12 435.783 1678.79 435.524 1681.29 435.055C1683.74 434.636 1685.88 433.291 1688.04 432.094C1687.48 431.965 1686.34 431.715 1685.77 431.586C1691.61 430.689 1696.95 426.671 1697.95 420.6Z" fill="#F2C020"/>
<path d="M1680.15 183.128C1680.15 184.785 1681.5 186.128 1683.15 186.128C1684.81 186.128 1686.15 184.785 1686.15 183.128L1683.15 183.128L1680.15 183.128ZM1680.15 121.711C1680.15 123.368 1681.5 124.711 1683.15 124.711C1684.81 124.711 1686.15 123.368 1686.15 121.711L1683.15 121.711L1680.15 121.711ZM1686.15 132.878C1686.15 131.221 1684.81 129.878 1683.15 129.878C1681.5 129.878 1680.15 131.221 1680.15 132.878L1683.15 132.878L1686.15 132.878ZM1680.15 144.045C1680.15 145.701 1681.5 147.045 1683.15 147.045C1684.81 147.045 1686.15 145.701 1686.15 144.045L1683.15 144.045L1680.15 144.045ZM1686.15 155.211C1686.15 153.554 1684.81 152.211 1683.15 152.211C1681.5 152.211 1680.15 153.554 1680.15 155.211L1683.15 155.211L1686.15 155.211ZM1680.15 166.378C1680.15 168.035 1681.5 169.378 1683.15 169.378C1684.81 169.378 1686.15 168.035 1686.15 166.378L1683.15 166.378L1680.15 166.378ZM1686.15 177.545C1686.15 175.888 1684.81 174.545 1683.15 174.545C1681.5 174.545 1680.15 175.888 1680.15 177.545L1683.15 177.545L1686.15 177.545ZM1683.15 116.128L1680.15 116.128L1680.15 121.711L1683.15 121.711L1686.15 121.711L1686.15 116.128L1683.15 116.128ZM1683.15 132.878L1680.15 132.878L1680.15 144.045L1683.15 144.045L1686.15 144.045L1686.15 132.878L1683.15 132.878ZM1683.15 155.211L1680.15 155.211L1680.15 166.378L1683.15 166.378L1686.15 166.378L1686.15 155.211L1683.15 155.211ZM1683.15 177.545L1680.15 177.545L1680.15 183.128L1683.15 183.128L1686.15 183.128L1686.15 177.545L1683.15 177.545Z" fill="#F8C11C"/>
<path d="M1433 312C1431.34 312 1430 313.343 1430 315C1430 316.657 1431.34 318 1433 318L1433 315L1433 312ZM1494.42 312C1492.76 312 1491.42 313.343 1491.42 315C1491.42 316.657 1492.76 318 1494.42 318L1494.42 315L1494.42 312ZM1483.25 318C1484.91 318 1486.25 316.657 1486.25 315C1486.25 313.343 1484.91 312 1483.25 312L1483.25 315L1483.25 318ZM1472.08 312C1470.43 312 1469.08 313.343 1469.08 315C1469.08 316.657 1470.43 318 1472.08 318L1472.08 315L1472.08 312ZM1460.92 318C1462.57 318 1463.92 316.657 1463.92 315C1463.92 313.343 1462.57 312 1460.92 312L1460.92 315L1460.92 318ZM1449.75 312C1448.09 312 1446.75 313.343 1446.75 315C1446.75 316.657 1448.09 318 1449.75 318L1449.75 315L1449.75 312ZM1438.58 318C1440.24 318 1441.58 316.657 1441.58 315C1441.58 313.343 1440.24 312 1438.58 312L1438.58 315L1438.58 318ZM1500 315L1500 312L1494.42 312L1494.42 315L1494.42 318L1500 318L1500 315ZM1483.25 315L1483.25 312L1472.08 312L1472.08 315L1472.08 318L1483.25 318L1483.25 315ZM1460.92 315L1460.92 312L1449.75 312L1449.75 315L1449.75 318L1460.92 318L1460.92 315ZM1438.58 315L1438.58 312L1433 312L1433 315L1433 318L1438.58 318L1438.58 315Z" fill="#F8C11C"/>
<path d="M1923 318C1923 319.657 1924.34 321 1926 321C1927.66 321 1929 319.657 1929 318L1926 318L1923 318ZM1923 256.583C1923 258.24 1924.34 259.583 1926 259.583C1927.66 259.583 1929 258.24 1929 256.583L1926 256.583L1923 256.583ZM1929 267.75C1929 266.093 1927.66 264.75 1926 264.75C1924.34 264.75 1923 266.093 1923 267.75L1926 267.75L1929 267.75ZM1923 278.917C1923 280.574 1924.34 281.917 1926 281.917C1927.66 281.917 1929 280.574 1929 278.917L1926 278.917L1923 278.917ZM1929 290.083C1929 288.426 1927.66 287.083 1926 287.083C1924.34 287.083 1923 288.426 1923 290.083L1926 290.083L1929 290.083ZM1923 301.25C1923 302.907 1924.34 304.25 1926 304.25C1927.66 304.25 1929 302.907 1929 301.25L1926 301.25L1923 301.25ZM1929 312.417C1929 310.76 1927.66 309.417 1926 309.417C1924.34 309.417 1923 310.76 1923 312.417L1926 312.417L1929 312.417ZM1926 251L1923 251L1923 256.583L1926 256.583L1929 256.583L1929 251L1926 251ZM1926 267.75L1923 267.75L1923 278.917L1926 278.917L1929 278.917L1929 267.75L1926 267.75ZM1926 290.083L1923 290.083L1923 301.25L1926 301.25L1929 301.25L1929 290.083L1926 290.083ZM1926 312.417L1923 312.417L1923 318L1926 318L1929 318L1929 312.417L1926 312.417Z" fill="#F8C11C"/>
<path d="M1863 315C1861.34 315 1860 316.343 1860 318C1860 319.657 1861.34 321 1863 321V318V315ZM1920.75 315C1919.09 315 1917.75 316.343 1917.75 318C1917.75 319.657 1919.09 321 1920.75 321V318V315ZM1910.25 321C1911.91 321 1913.25 319.657 1913.25 318C1913.25 316.343 1911.91 315 1910.25 315V318V321ZM1899.75 315C1898.09 315 1896.75 316.343 1896.75 318C1896.75 319.657 1898.09 321 1899.75 321V318V315ZM1889.25 321C1890.91 321 1892.25 319.657 1892.25 318C1892.25 316.343 1890.91 315 1889.25 315V318V321ZM1878.75 315C1877.09 315 1875.75 316.343 1875.75 318C1875.75 319.657 1877.09 321 1878.75 321V318V315ZM1868.25 321C1869.91 321 1871.25 319.657 1871.25 318C1871.25 316.343 1869.91 315 1868.25 315V318V321ZM1926 318V315H1920.75V318V321H1926V318ZM1910.25 318V315H1899.75V318V321H1910.25V318ZM1889.25 318V315H1878.75V318V321H1889.25V318ZM1868.25 318V315H1863V318V321H1868.25V318Z" fill="#F8C11C"/>
<defs>
<linearGradient id="paint0_linear_0_1" x1="0" y1="256" x2="2048" y2="256" gradientUnits="userSpaceOnUse">
<stop offset="0.298116" stop-color="#121E36"/>
<stop offset="0.932692" stop-color="#0A4877"/>
</linearGradient>
</defs>
</svg>
